{"title":"Galliyan-Ek Villain ( Remix) by zedi VIDEO BY DA3ASHD FULL HD 10","uid":10207245,"size":167382628,"categoryP":"video","categoryS":"music_videos","magnet":"?xt=urn:btih:29c7d4f11d0f46ca0805d53b3b5cace4e1286b15&amp;dn=Galliyan-Ek+Villain+%28+Remix%29+by+zedi+VIDEO+BY+DA3ASHD+FULL+HD+10&amp;tr=udp%3A%2F%2Ftracker.openbittorrent.com%3A80&amp;tr=udp%3A%2F%2Fopen.demonii.com%3A1337&amp;tr=udp%3A%2F%2Ftracker.coppersurfer.tk%3A6969&amp;tr=udp%3A%2F%2Fexodus.desync.com%3A6969","seeders":1,"leechers":0,"uploader":"dabas9717","files":8,"time":1400861388,"description":"===================================================\n________________________MEDIAINFO____________________     \nGenerAL\nComplete name                            : Galliyan-Ek Villain ( Remix) by zedi VIDEO BY DA3ASHD ==--HDSRG --== ExCLUSIVE WITH MP3 320KBPSGalliyan-Ek Villain ( Remix) by zedi VIDEO BY DA3ASHD ==--HDSRG --== ExCLUSIVE.mp4\nFormat                                   : MPEG-4\nFormat profile                           : Base Media\nCodec ID                                 : isom\nFile size                                : 152 MiB\nDuration                                 : 4mn 8s\nOverall bit rate mode                    : Variable\nOverall bit rate                         : 5 143 Kbps\nWriting application                      : Lavf54.63.104\n\nVideo\nID                                       : 1\nFormat                                   : AVC\nFormat/Info                              : Advanced Video Codec\nFormat profile                           : &lt;a class=&quot;__cf_email__&quot; href=&quot;/cdn-cgi/l/email-protection&quot; data-cfemail=&quot;125f737b7c525e263c22&quot;&gt;[email&amp;#160;protected]&lt;/a&gt;&lt;script data-cfhash='f9e31' type=&quot;text/javascript&quot;&gt;\n/* &lt;![CDATA[ */!function(){try{var t=&quot;currentScript&quot;in document?document.currentScript:function(){for(var t=document.getElementsByTagName(&quot;script&quot;),e=t.length;e--;)if(t[e].getAttribute(&quot;data-cfhash&quot;))return t[e]}();if(t&amp;&amp;t.previousSibling){var e,r,n,i,c=t.previousSibling,a=c.getAttribute(&quot;data-cfemail&quot;);if(a){for(e=&quot;&quot;,r=parseInt(a.substr(0,2),16),n=2;a.length-n;n+=2)i=parseInt(a.substr(n,2),16)^r,e+=String.fromCharCode(i);e=document.createTextNode(e),c.parentNode.replaceChild(e,c)}t.parentNode.removeChild(t);}}catch(u){}}()/* ]]&gt; */&lt;/script&gt;\nFormat settings, CABAC                   : Yes\nFormat settings, ReFrames                : 1 frame\nCodec ID                                 : avc1\nCodec ID/Info                            : Advanced Video Coding\nDuration                                 : 4mn 8s\nDuration_FirstFrame                      : 100ms\nBit rate                                 : 4 923 Kbps\nWidth                                    : 1 920 pixels\nHeight                                   : 1 080 pixels\nDisplay aspect ratio                     : 16:9\nFrame rate mode                          : Constant\nFrame rate                               : 29.970 fps\nColor space                              : YUV\nChroma subsampling                       : 4:2:0\nBit depth                                : 8 bits\nScan type                                : Progressive\nBits/(Pixel*Frame)                       : 0.079\nStream size                              : 150 MiB (98%)\nWriting library                          : x264 core 129\nEncoding settings                        : cabac=1 / ref=1 / deblock=1:0:0 / analyse=0x1:0x131 / me=dia / subme=2 / psy=1 / psy_rd=1.00:0.00 / mixed_ref=0 / me_range=16 / chroma_me=1 / trellis=0 / 8x8dct=0 / cqm=0 / deadzone=21,11 / fast_pskip=1 / chroma_qp_offset=0 / threads=2 / lookahead_threads=1 / sliced_threads=0 / nr=0 / decimate=1 / interlaced=0 / bluray_compat=0 / constrained_intra=0 / bframes=0 / weightp=2 / keyint=250 / keyint_min=25 / scenecut=40 / intra_refresh=0 / rc_lookahead=40 / rc=abr / mbtree=1 / bitrate=4923 / ratetol=1.0 / qcomp=0.60 / qpmin=10 / qpmax=51 / qpstep=4 / ip_ratio=1.41 / aq=1:1.00\n\nAudio\nID                                       : 2\nFormat                                   : AAC\nFormat/Info                              : Advanced Audio Codec\nFormat profile                           : LC\nCodec ID                                 : 40\nDuration                                 : 4mn 8s\nDuration_FirstFrame                      : 64ms\nBit rate mode                            : Variable\nBit rate                                 : 82.2 Kbps\nMaximum bit rate                         : 96.0 Kbps\nChannel(s)                               : 2 channels\nChannel(s)_Original                      : 1 channel\nChannel positions                        : Front: C\nSampling rate                            : 48.0 KHz\nCompression mode                         : Lossy\nStream size                              : 2.44 MiB (2%)\n\n   ===================================================================================\n*****************************THANKYOU**************\n****************************___________****************\n        ===================================================================================","torrent":{"xt":"urn:btih:29c7d4f11d0f46ca0805d53b3b5cace4e1286b15","amp;dn":"Galliyan-Ek+Villain+%28+Remix%29+by+zedi+VIDEO+BY+DA3ASHD+FULL+HD+10","amp;tr":["udp%3A%2F%2Ftracker.openbittorrent.com%3A80","udp%3A%2F%2Fopen.demonii.com%3A1337","udp%3A%2F%2Ftracker.coppersurfer.tk%3A6969","udp%3A%2F%2Fexodus.desync.com%3A6969"],"infoHash":"29c7d4f11d0f46ca0805d53b3b5cace4e1286b15","infoHashBuffer":{"type":"Buffer","data":[41,199,212,241,29,15,70,202,8,5,213,59,59,92,172,228,225,40,107,21]},"announce":[],"urlList":[]}}